# xmcd CD database file
#
# Track frame offsets:
#	150
#	17620
#	36685
#	54685
#	72321
#	90831
#	106147
#	127259
#	146897
#	162945
#	180272
#	199454
#	212448
#	224121
#	249919
#	266552
#	278500
#	291754
#	306745
#	320138
#
# Disc length: 4516 seconds
#
# Revision: 0
# Processed by: cddbd v1.5.2PL0 Copyright (c) Steve Scherf et al.
# Submitted via: CDex 1.51
#
DISCID=3f11a214
DTITLE=The Real Book Play-Along - Volume II
DYEAR=2010
DGENRE=Jazz
TTITLE0=Early Autumn
TTITLE1=Eclypso
TTITLE2=Elora
TTITLE3=Estate
TTITLE4=Everything I Have Is Yours
TTITLE5=Feels So Good
TTITLE6=Fever
TTITLE7=First Trip
TTITLE8=Five Brothers
TTITLE9=Five Spot After Dark
TTITLE10=A Flower Is A Lovesome Thing
TTITLE11=Fly Me To The Moon (In Other Words)
TTITLE12=Flying Home
TTITLE13=The Folks Who Live On The Hill
TTITLE14=Four Brothers
TTITLE15=Fox Hunt
TTITLE16=Freight Trane
TTITLE17=Frenesi
TTITLE18=The Frim Fram Sauce
TTITLE19=Georgia On My Mind
EXTD=YEAR: 2010
EXTT0=
EXTT1=
EXTT2=
EXTT3=
EXTT4=
EXTT5=
EXTT6=
EXTT7=
EXTT8=
EXTT9=
EXTT10=
EXTT11=
EXTT12=
EXTT13=
EXTT14=
EXTT15=
EXTT16=
EXTT17=
EXTT18=
EXTT19=
PLAYORDER=
